<svg width="108" height="96" viewBox="0 0 108 96" fill="none" xmlns="http://www.w3.org/2000/svg">
  <path d="M36 12H70L83 25V65" stroke="#F47A20" stroke-width="5.5" stroke-linecap="round" stroke-linejoin="round"/>
  <path d="M70 12V25H83" stroke="#F47A20" stroke-width="5.5" stroke-linecap="round" stroke-linejoin="round"/>
  <path d="M12 22H60L74 36V84C74 87.866 70.866 91 67 91H12C8.13401 91 5 87.866 5 84V29C5 25.134 8.13401 22 12 22Z" fill="white" stroke="#F47A20" stroke-width="5.5" stroke-linejoin="round"/>
  <path d="M60 22V36H74" stroke="#F47A20" stroke-width="5.5" stroke-linecap="round" stroke-linejoin="round"/>
  <rect x="22" y="44" width="35" height="28" rx="4.5" fill="#FF2B2B"/>
  <path d="M78 56H89" stroke="#F6A112" stroke-width="6.5" stroke-linecap="round"/>
  <path d="M84 47L96 56L84 65" stroke="#F6A112" stroke-width="6.5" stroke-linecap="round" stroke-linejoin="round"/>
  <rect x="44" y="1" width="59" height="30" rx="6.5" fill="#1C99FF"/>
  <text x="73.5" y="20.5" text-anchor="middle" fill="white" font-family="Arial, Helvetica, sans-serif" font-size="15" font-weight="700">FREE</text>
  <text x="39.5" y="62.5" text-anchor="middle" fill="white" font-family="Arial, Helvetica, sans-serif" font-size="15" font-weight="700">PDF</text>
</svg>
